<svg width="36" height="24" viewBox="0 0 36 24" fill="none" xmlns="http://www.w3.org/2000/svg">
<rect width="36" height="24" rx="4" fill="#F9F9F9"/>
<path d="M13 16L14.561 8H17L15.4878 16H13Z" fill="#3C58BF"/>
<path d="M13 16L15 8H17L15.4878 16H13Z" fill="#293688"/>
<path d="M23 8.33684C22.6078 8.16842 21.9804 8 21.1961 8C19.2353 8 17.8235 9.05263 17.8235 10.5684C17.8235 11.7053 18.8039 12.2947 19.5882 12.6737C20.3725 13.0526 20.6078 13.3053 20.6078 13.6421C20.6078 14.1474 19.9804 14.4 19.4314 14.4C18.6471 14.4 18.2157 14.2737 17.549 13.9789L17.2745 13.8526L17 15.5789C17.4706 15.7895 18.3333 16 19.2353 16C21.3137 16 22.6863 14.9474 22.6863 13.3474C22.6863 12.4632 22.1765 11.7895 21 11.2421C20.2941 10.8632 19.8627 10.6526 19.8627 10.2737C19.8627 9.93684 20.2157 9.6 21 9.6C21.6667 9.6 22.1373 9.72632 22.4902 9.89474L22.6863 9.97895L23 8.33684Z" fill="#3C58BF"/>
<path d="M23 8.33684C22.6078 8.16842 21.9804 8 21.1961 8C19.2353 8 18.1765 9.05263 18.1765 10.5684C18.1765 11.7053 18.8039 12.2947 19.5882 12.6737C20.3725 13.0526 20.6078 13.3053 20.6078 13.6421C20.6078 14.1474 19.9804 14.4 19.4314 14.4C18.6471 14.4 18.2157 14.2737 17.549 13.9789L17.2745 13.8526L17 15.5789C17.4706 15.7895 18.3333 16 19.2353 16C21.3137 16 22.6863 14.9474 22.6863 13.3474C22.6863 12.4632 22.1765 11.7895 21 11.2421C20.2941 10.8632 19.8627 10.6526 19.8627 10.2737C19.8627 9.93684 20.2157 9.6 21 9.6C21.6667 9.6 22.1373 9.72632 22.4902 9.89474L22.6863 9.97895L23 8.33684Z" fill="#293688"/>
<path d="M26.8846 8C26.4231 8 26.0769 8.04444 25.8846 8.57778L23 16H25.0769L25.4615 14.6667H27.9231L28.1538 16H30L28.3846 8H26.8846ZM26 13.3333C26.1154 12.9333 26.7692 10.9778 26.7692 10.9778C26.7692 10.9778 26.9231 10.4889 27.0385 10.1778L27.1538 10.9333C27.1538 10.9333 27.5385 12.9333 27.6154 13.3778H26V13.3333Z" fill="#3C58BF"/>
<path d="M27.3462 8C26.8846 8 26.5385 8.04444 26.3462 8.57778L23 16H25.0769L25.4615 14.6667H27.9231L28.1538 16H30L28.3846 8H27.3462ZM26 13.3333C26.1538 12.8889 26.7692 10.9778 26.7692 10.9778C26.7692 10.9778 26.9231 10.4889 27.0385 10.1778L27.1538 10.9333C27.1538 10.9333 27.5385 12.9333 27.6154 13.3778H26V13.3333Z" fill="#293688"/>
<path d="M9.33333 13.5556L9.11111 12.4C8.71111 11.0667 7.42222 9.6 6 8.88889L8 16H10.4L14 8H11.6L9.33333 13.5556Z" fill="#3C58BF"/>
<path d="M9.33333 13.5556L9.11111 12.4C8.71111 11.0667 7.42222 9.6 6 8.88889L8 16H10.4L14 8H12.0444L9.33333 13.5556Z" fill="#293688"/>
<path d="M4 8L4.33582 8.08C6.72388 8.68 8.36567 10.2 9 12L8.32836 8.6C8.21642 8.12 7.8806 8 7.47015 8H4Z" fill="#FFBC00"/>
<path d="M4 8C6.38806 8.60606 8.36567 10.1818 9 12L8.36567 9.13131C8.25373 8.64647 7.8806 8.36364 7.47015 8.36364L4 8Z" fill="#F7981D"/>
<path d="M4 8C6.38806 8.60606 8.36567 10.1818 9 12L8.55224 10.4242C8.4403 9.93939 8.29105 9.45455 7.76866 9.25253L4 8Z" fill="#ED7C00"/>
<path d="M11.7225 13.2773L10.2984 11.8532L9.62824 13.4448L9.4607 12.3977C9.08375 11.1412 7.8691 9.75901 6.52881 9.08887L8.4136 15.7903H10.6753L11.7225 13.2773Z" fill="#051244"/>
<path d="M15.618 15.7902L13.817 13.9473L13.4819 15.7902H15.618Z" fill="#051244"/>
<path d="M20.4345 13.1934C20.602 13.3609 20.6858 13.4865 20.6439 13.6541C20.6439 14.1567 19.9737 14.408 19.3873 14.408C18.5497 14.408 18.0889 14.2823 17.3769 13.9892L17.0837 13.8635L16.7905 15.5808C17.2931 15.7902 18.2146 15.9996 19.1779 15.9996C20.5182 15.9996 21.6072 15.6226 22.2355 14.9525L20.4345 13.1934Z" fill="#051244"/>
<path d="M22.8638 15.7905H24.8323L25.2512 14.534H27.9318L28.1831 15.7905H30.1935L29.4815 12.733L26.9684 10.3037L27.0941 10.9739C27.0941 10.9739 27.5129 12.8586 27.5967 13.2775H25.8375C26.0051 12.8586 26.6752 11.0576 26.6752 11.0576C26.6752 11.0576 26.8428 10.5969 26.9684 10.3037" fill="#051244"/>
</svg>
