<svg width="16" height="16" viewBox="0 0 16 16" fill="none" xmlns="http://www.w3.org/2000/svg">
<g clip-path="url(#clip0)">
<path d="M13.2957 3.67891C13.1982 3.62147 13.0782 3.61747 12.977 3.66825C12.8761 3.71916 12.8078 3.81781 12.7957 3.93025C12.7837 4.0396 12.765 4.14891 12.7417 4.2636C12.089 7.22559 10.7784 8.66625 8.7337 8.66625H5.73371C5.57552 8.66653 5.43933 8.77793 5.40771 8.9329L4.40771 13.6202L4.22906 14.8136C4.12634 15.3562 4.48296 15.8794 5.02559 15.9821C5.08543 15.9935 5.14615 15.9993 5.20705 15.9996H7.21371C7.67364 16.001 8.07464 15.6871 8.1837 15.2402L8.99436 11.9996H10.7337C12.7864 11.9996 14.205 10.3629 14.7283 7.39094C15.0738 5.97575 14.5023 4.49506 13.2957 3.67891Z" fill="#03A9F4"/>
<path d="M12.6669 1.18802C12.0082 0.440867 11.0629 0.00893051 10.0669 2.42759e-05H4.54692C3.72082 -0.00441322 3.01751 0.599992 2.89761 1.41733L1.18361 12.8513C1.10152 13.3975 1.47767 13.9067 2.02383 13.9889C2.07339 13.9963 2.12348 14 2.17361 14H4.7336C4.89179 13.9997 5.02798 13.8883 5.0596 13.7333L6.00294 9.33335H8.73628C11.1083 9.33335 12.6756 7.67535 13.3956 4.40002C13.4246 4.26945 13.4468 4.13752 13.4623 4.00467C13.6294 2.99421 13.3379 1.9618 12.6669 1.18802Z" fill="#283593"/>
</g>
<defs>
<clipPath id="clip0">
<rect width="16" height="16" fill="white"/>
</clipPath>
</defs>
</svg>
