<svg width="36" height="24" viewBox="0 0 36 24" fill="none" xmlns="http://www.w3.org/2000/svg">
<path d="M0 4C0 1.79086 1.79086 0 4 0H32C34.2091 0 36 1.79086 36 4V20C36 22.2091 34.2091 24 32 24H4C1.79086 24 0 22.2091 0 20V4Z" fill="#F9F9F9"/>
<path d="M36 22.7202C36 23.427 35.4628 24 34.8002 24H1.20038C0.536625 24 0 23.427 0 22.7202V1.281C0 0.573 0.537188 0 1.20038 0H34.8005C35.4628 0 36 0.573 36 1.281V22.7202Z" fill="#14477C"/>
<path d="M22.2849 18.8924L22.6187 18.8828L22.9478 18.8558L23.2704 18.8126L23.5887 18.7511L23.9026 18.6746L24.2103 18.5816L24.5101 18.473L24.8054 18.3482L25.0923 18.2102L25.3702 18.0581L25.6416 17.8931L25.9037 17.7119L26.158 17.5199L26.4027 17.3159L26.6378 17.0987L26.8628 16.8695L27.0751 16.6295L27.279 16.3781L27.4731 16.1177L27.6531 15.8477L27.8207 15.5675L27.9754 15.2774L28.12 14.9804L28.2493 14.675L28.3647 14.36L28.4665 14.0408L28.5537 13.7126L28.6251 13.3796L28.6827 13.0376L28.7232 12.6926L28.7486 12.3416L28.7576 11.9861L28.7483 11.633L28.723 11.2838L28.6825 10.9418L28.6248 10.6028L28.5531 10.2716L28.4659 9.94582L28.3647 9.62632L28.2493 9.31342L28.12 9.01042L27.9751 8.71342L27.8204 8.42542L27.6528 8.14432L27.4728 7.87552L27.2787 7.61452L27.0748 7.36552L26.8625 7.12552L26.6375 6.89902L26.4021 6.68092L26.1574 6.47692L25.9034 6.28492L25.6419 6.10612L25.3702 5.94112L25.0923 5.78662L24.8054 5.64862L24.5101 5.52562L24.2103 5.41702L23.9026 5.32402L23.5887 5.24752L23.2701 5.18632L22.9472 5.14342L22.6182 5.11642L22.2843 5.10742L21.951 5.11642L21.622 5.14342L21.2994 5.18662L20.9807 5.24812L20.6666 5.32492L20.3606 5.41792L20.0591 5.52682L19.7666 5.64922L19.4797 5.78782L19.2018 5.94202L18.9318 6.10702L18.6683 6.28582L18.4157 6.47842L18.1716 6.68242L17.9382 6.89992L17.7146 7.12612L17.5008 7.36612L17.2972 7.61512L17.1059 7.87612L16.9254 8.14492L16.7575 8.42602L16.6028 8.71402L16.4602 9.01102L16.3325 9.31402L16.2166 9.62662L16.1145 9.94582L16.0293 10.2716L15.957 10.6025L15.9008 10.9421L15.8594 11.2841L15.8341 11.633L15.8257 11.9861L15.8341 12.3419L15.8594 12.6929L15.9005 13.0379L15.9567 13.3799L16.0293 13.7129L16.1145 14.0408L16.2166 14.36L16.3325 14.675L16.4602 14.981L16.6028 15.2774L16.7575 15.5675L16.9257 15.848L17.1065 16.118L17.2977 16.3781L17.5011 16.6295L17.7148 16.8695L17.9387 17.0987L18.1722 17.3159L18.4163 17.5199L18.6688 17.7119L18.9321 17.8931L19.2021 18.0581L19.48 18.2102L19.7668 18.3488L20.0593 18.4736L20.3611 18.5816L20.6671 18.6752L20.9813 18.7517L21.2999 18.8129L21.6225 18.8561L21.9516 18.8831" fill="#EB2230"/>
<path d="M13.715 18.8924L14.0483 18.8828L14.3774 18.8558L14.7008 18.8126L15.0186 18.7511L15.3336 18.6746L15.6385 18.5816L15.9408 18.473L16.2333 18.3482L16.5196 18.2102L16.7981 18.0581L17.0672 17.8931L17.3308 17.7119L17.5839 17.5199L17.8275 17.3159L18.0615 17.0987L18.2865 16.8695L18.4982 16.6295L18.7024 16.3781L18.8937 16.1177L19.0737 15.8477L19.2424 15.5675L19.3971 15.2774L19.5394 14.9804L19.6682 14.675L19.783 14.36L19.8842 14.0408L19.9697 13.7126L20.0429 13.3796L20.1 13.0376L20.1393 12.6926L20.1646 12.3416L20.1731 11.9861L20.1646 11.633L20.1393 11.2838L20.1 10.9418L20.0423 10.6028L19.9692 10.2716L19.8842 9.94582L19.783 9.62632L19.6677 9.31342L19.5391 9.01042L19.3966 8.71342L19.2419 8.42542L19.0731 8.14432L18.8931 7.87552L18.7019 7.61452L18.4974 7.36552L18.2853 7.12552L18.0603 6.89902L17.8263 6.68092L17.5825 6.47692L17.3299 6.28492L17.0664 6.10612L16.797 5.94112L16.5185 5.78662L16.2325 5.64862L15.94 5.52562L15.6374 5.41702L15.3322 5.32402L15.0172 5.24752L14.6994 5.18632L14.376 5.14342L14.0469 5.11642L13.7136 5.10742L13.3803 5.11642L13.0513 5.14342L12.7287 5.18662L12.41 5.24812L12.0956 5.32492L11.7879 5.41792L11.4884 5.52682L11.1931 5.64922L10.9062 5.78782L10.6286 5.94202L10.3566 6.10702L10.0951 6.28582L9.84024 6.47842L9.5964 6.68242L9.36015 6.89992L9.13712 7.12612L8.92337 7.36612L8.71918 7.61512L8.52596 7.87612L8.34596 8.14492L8.17834 8.42602L8.02309 8.71402L7.87852 9.01102L7.74915 9.31402L7.6344 9.62662L7.53259 9.94582L7.4454 10.2716L7.3734 10.6025L7.3163 10.9421L7.27552 11.2841L7.24965 11.633L7.24121 11.9861L7.24965 12.3419L7.27552 12.6929L7.31602 13.0379L7.37284 13.3799L7.44484 13.7129L7.53202 14.0408L7.63384 14.36L7.74859 14.675L7.87796 14.981L8.02252 15.2774L8.17777 15.5675L8.3454 15.848L8.5254 16.118L8.7189 16.3781L8.9228 16.6295L9.13655 16.8695L9.35987 17.0987L9.59612 17.3159L9.83996 17.5199L10.0948 17.7119L10.3563 17.8931L10.628 18.0581L10.9059 18.2102L11.1928 18.3488L11.4881 18.4736L11.7873 18.5816L12.095 18.6752L12.4095 18.7517L12.7281 18.8129L13.0507 18.8561L13.3798 18.8831" fill="#0B84C4"/>
<path d="M17.2038 7.73353H20.4795V7.34863H17.5199L17.2038 7.73353ZM16.6897 8.54893H20.4795V8.16643H16.9189L16.6897 8.54893ZM16.3052 9.37843H20.4795V8.99293H16.4816L16.3052 9.37843ZM16.0552 10.1935H20.4792V9.81043H16.166L16.0552 10.1935ZM15.8915 11.011H20.4795V10.6255H15.957L15.8915 11.011ZM15.8572 12.5944H20.4795V12.2086H15.8257L15.8572 12.5944ZM15.968 13.4569H20.4792V13.072H15.9025L15.968 13.4569ZM16.1868 14.1568H20.4795V13.7719H16.076L16.1868 14.1568ZM16.5131 15.0082H20.4795V14.6233H16.3395L16.5131 15.0082ZM16.9737 15.8713H20.4795V15.4864H16.7322L16.9737 15.8713ZM17.5517 16.6999H20.4486V16.3153H17.2353" fill="#EB2230"/>
<path d="M27.6934 16.2194L27.7122 16.1582L27.744 16.1018L27.7845 16.0517L27.8312 16.0106L27.884 15.9791L27.9417 15.9587L28.0027 15.9521L28.0663 15.9587L28.1262 15.9791L28.1788 16.0106L28.2255 16.0517L28.2632 16.1018L28.2935 16.1582L28.3127 16.2194H28.2469L28.2336 16.1765L28.2106 16.1285L28.1805 16.088L28.1445 16.0559L28.1023 16.0319L28.0531 16.016L28.0025 16.0109L27.9518 16.016L27.9029 16.0316L27.8601 16.0556L27.8219 16.088L27.7926 16.1288L27.769 16.1768L27.7561 16.2194" fill="#EB2230"/>
<path d="M27.8929 16.2193V16.1377H28.0132L28.0414 16.1398L28.065 16.1428L28.0861 16.1497L28.103 16.1587L28.1162 16.1695L28.1263 16.1827L28.1325 16.1986L28.1342 16.2196H28.0793L28.0765 16.2076L28.0729 16.1986L28.0661 16.1896L28.0577 16.1827L28.0473 16.1785L28.0369 16.1764L28.0256 16.174H27.9477V16.219L27.8929 16.2193ZM27.689 16.2784L27.6935 16.2214V16.2193H27.7565L27.7545 16.2307L27.7506 16.2787" fill="#EB2230"/>
<path d="M27.8929 16.2788V16.2197H27.9483V16.2671H28.0391L28.0515 16.265L28.0619 16.2602L28.0687 16.256L28.0757 16.247L28.0796 16.2359V16.2197H28.1342L28.1325 16.2401L28.1289 16.2581L28.1218 16.2716L28.1162 16.2785L27.8929 16.2788ZM28.2543 16.2788L28.2492 16.2308L28.2475 16.2197H28.3134V16.2218L28.319 16.2788H28.2543ZM27.689 16.2788L27.687 16.2899L27.6935 16.3574L27.7123 16.4213L27.7441 16.4753L27.7846 16.5254L27.8313 16.5635L27.8842 16.5935L27.9418 16.6115L28.0029 16.6184L28.0664 16.6115L28.1263 16.5935L28.1789 16.5635L28.2256 16.5254L28.2633 16.4756L28.2937 16.421L28.3128 16.3571L28.3184 16.2896V16.2785H28.2537V16.2896L28.2487 16.3487L28.2338 16.4027L28.2107 16.4507L28.1806 16.4912L28.1446 16.5251L28.1024 16.55L28.0532 16.5656L28.0026 16.5704L27.9519 16.5656L27.903 16.55L27.8603 16.5251L27.822 16.4912L27.7928 16.4504L27.7691 16.4024L27.7542 16.3484L27.7503 16.2896V16.2785" fill="#EB2230"/>
<path d="M27.8931 16.2782V16.418H27.9485V16.3025H28.0033L28.0691 16.4177H28.1251L28.0463 16.3022L28.066 16.2998L28.0846 16.2974L28.0992 16.2908L28.1122 16.2818L28.1169 16.2773" fill="#EB2230"/>
<path d="M20.8855 11.4072L20.8433 11.4051L20.8005 11.4003L20.7623 11.3937L20.724 11.3895L20.6861 11.382L20.6484 11.3754L20.6079 11.3685L20.5657 11.3616L20.5207 11.3565L20.474 11.3523L20.4206 11.3481L20.3635 11.3457H20.3002L20.2299 11.3481L20.1511 11.3526L20.0668 11.3598L20.0054 11.3688L19.9475 11.3823L19.8941 11.4003L19.8471 11.4213L19.8049 11.4453L19.7669 11.4729L19.7352 11.5047L19.7098 11.5362L19.6902 11.5722L19.6772 11.6112L19.6708 11.6493V11.6901L19.6803 11.733L19.6944 11.7759L19.7177 11.8188L19.7481 11.862L19.8091 11.9211L19.8811 11.9691L19.9666 12.0093L20.0578 12.0435L20.1534 12.0777L20.2532 12.1116L20.3553 12.1506L20.4529 12.1956L20.5443 12.2502L20.6309 12.3162L20.7074 12.3996L20.7713 12.4992L20.8199 12.6213L20.8528 12.7665L20.8633 12.9381L20.8526 13.1421L20.8289 13.2939L20.7901 13.4295L20.7412 13.5525L20.6802 13.6605L20.6076 13.7559L20.5288 13.8369L20.4417 13.9074L20.3483 13.9689L20.2507 14.0187L20.1486 14.0592L20.0445 14.0934L19.9405 14.1183L19.8364 14.1363L19.7352 14.1477L19.6373 14.1543L19.5417 14.1567H19.4103L19.2908 14.1543L19.1825 14.1522L19.0829 14.1501L18.9924 14.1456L18.9108 14.1411L18.8343 14.1351L18.7668 14.1252L18.703 14.1162L18.6439 14.1051L18.5877 14.0937L18.5325 14.0778L18.4825 14.0619L18.4307 14.0463L18.3801 14.0253L18.3267 14.0055L18.4583 13.2945L18.4887 13.3014L18.5244 13.3122L18.5688 13.3242L18.6175 13.3374L18.6751 13.3494L18.739 13.3653L18.8073 13.3782L18.879 13.392L18.9558 13.404L19.0365 13.4148L19.1189 13.4238L19.2061 13.4328L19.2933 13.4373L19.3825 13.4394H19.4716L19.563 13.4349L19.6483 13.419L19.7177 13.3944L19.7712 13.3578L19.8133 13.3173L19.8454 13.2693L19.8693 13.2198L19.8879 13.17L19.9011 13.1199L19.9076 13.068L19.9053 13.0221L19.8949 12.9795L19.878 12.9435L19.8544 12.9075L19.8249 12.8751L19.7892 12.8457L19.7489 12.8187L19.7039 12.7941L19.6553 12.7689L19.6018 12.744L19.547 12.7215L19.4922 12.6987L19.4323 12.6738L19.3732 12.6486L19.3113 12.6216L19.2517 12.5946L19.1918 12.5646L19.1327 12.531L19.0753 12.4944L19.0202 12.456L18.9696 12.4128L18.9204 12.363L18.8754 12.3111L18.8349 12.252L18.7989 12.1884L18.7691 12.1188L18.7438 12.0438L18.7269 11.9598L18.7165 11.8692L18.7142 11.7702L18.721 11.6631L18.7266 11.5977L18.7359 11.5341L18.7443 11.4732L18.757 11.4141L18.7693 11.3571L18.7845 11.301L18.8037 11.2488L18.8233 11.1969L18.8458 11.1489L18.8692 11.1021L18.8973 11.0586L18.9271 11.0157L18.9589 10.9746L18.9932 10.9362L19.0289 10.9002L19.0689 10.866L19.1111 10.8342L19.1561 10.8051L19.205 10.7781L19.2565 10.7505L19.3099 10.7277L19.3667 10.7052L19.4258 10.6872L19.4896 10.6692L19.558 10.653L19.6283 10.6398L19.7003 10.6284L19.7768 10.6194L19.8578 10.6122L19.9422 10.608L20.0293 10.6035H20.2335L20.3353 10.6053L20.4265 10.6077L20.5117 10.6119L20.5857 10.617L20.6537 10.6206L20.715 10.6278L20.7685 10.632L20.8174 10.6392L20.8596 10.6458L20.9004 10.65L20.9341 10.6569L20.9642 10.6617L20.9912 10.6659L21.0165 10.6701L21.0399 10.6731" fill="white"/>
<path d="M20.8855 11.4072L20.8433 11.4051L20.8005 11.4003L20.7623 11.3937L20.724 11.3895L20.6861 11.382L20.6484 11.3754L20.6079 11.3685L20.5657 11.3616L20.5207 11.3565L20.474 11.3523L20.4206 11.3481L20.3635 11.3457H20.3002L20.2299 11.3481L20.1511 11.3526L20.0668 11.3598L20.0054 11.3688L19.9475 11.3823L19.8941 11.4003L19.8471 11.4213L19.8049 11.4453L19.7669 11.4729L19.7352 11.5047L19.7098 11.5362L19.6902 11.5722L19.6772 11.6112L19.6708 11.6493V11.6901L19.6803 11.733L19.6944 11.7759L19.7177 11.8188L19.7481 11.862L19.8091 11.9211L19.8811 11.9691L19.9666 12.0093L20.0578 12.0435L20.1534 12.0777L20.2532 12.1116L20.3553 12.1506L20.4529 12.1956L20.5443 12.2502L20.6309 12.3162L20.7074 12.3996L20.7713 12.4992L20.8199 12.6213L20.8528 12.7665L20.8633 12.9381L20.8526 13.1421L20.8289 13.2939L20.7901 13.4295L20.7412 13.5525L20.6802 13.6605L20.6076 13.7559L20.5288 13.8369L20.4417 13.9074L20.3483 13.9689L20.2507 14.0187L20.1486 14.0592L20.0445 14.0934L19.9405 14.1183L19.8364 14.1363L19.7352 14.1477L19.6373 14.1543L19.5417 14.1567H19.4103L19.2908 14.1543L19.1825 14.1522L19.0829 14.1501L18.9924 14.1456L18.9108 14.1411L18.8343 14.1351L18.7668 14.1252L18.703 14.1162L18.6439 14.1051L18.5877 14.0937L18.5325 14.0778L18.4825 14.0619L18.4307 14.0463L18.3801 14.0253L18.3267 14.0055L18.4583 13.2945L18.4887 13.3014L18.5244 13.3122L18.5688 13.3242L18.6175 13.3374L18.6751 13.3494L18.739 13.3653L18.8073 13.3782L18.879 13.392L18.9558 13.404L19.0365 13.4148L19.1189 13.4238L19.2061 13.4328L19.2933 13.4373L19.3825 13.4394H19.4716L19.563 13.4349L19.6483 13.419L19.7177 13.3944L19.7712 13.3578L19.8133 13.3173L19.8454 13.2693L19.8693 13.2198L19.8879 13.17L19.9011 13.1199L19.9076 13.068L19.9053 13.0221L19.8949 12.9795L19.878 12.9435L19.8544 12.9075L19.8249 12.8751L19.7892 12.8457L19.7489 12.8187L19.7039 12.7941L19.6553 12.7689L19.6018 12.744L19.547 12.7215L19.4922 12.6987L19.4323 12.6738L19.3732 12.6486L19.3113 12.6216L19.2517 12.5946L19.1918 12.5646L19.1327 12.531L19.0753 12.4944L19.0202 12.456L18.9696 12.4128L18.9204 12.363L18.8754 12.3111L18.8349 12.252L18.7989 12.1884L18.7691 12.1188L18.7438 12.0438L18.7269 11.9598L18.7165 11.8692L18.7142 11.7702L18.721 11.6631L18.7266 11.5977L18.7359 11.5341L18.7443 11.4732L18.757 11.4141L18.7693 11.3571L18.7845 11.301L18.8037 11.2488L18.8233 11.1969L18.8458 11.1489L18.8692 11.1021L18.8973 11.0586L18.9271 11.0157L18.9589 10.9746L18.9932 10.9362L19.0289 10.9002L19.0689 10.866L19.1111 10.8342L19.1561 10.8051L19.205 10.7781L19.2565 10.7505L19.3099 10.7277L19.3667 10.7052L19.4258 10.6872L19.4896 10.6692L19.558 10.653L19.6283 10.6398L19.7003 10.6284L19.7768 10.6194L19.8578 10.6122L19.9422 10.608L20.0293 10.6035H20.2335L20.3353 10.6053L20.4265 10.6077L20.5117 10.6119L20.5857 10.617L20.6537 10.6206L20.715 10.6278L20.7685 10.632L20.8174 10.6392L20.8596 10.6458L20.9004 10.65L20.9341 10.6569L20.9642 10.6617L20.9912 10.6659L21.0165 10.6701L21.0399 10.6731L20.8874 11.4066" stroke="white" stroke-width="0.215"/>
<path d="M21.5841 9.8916H22.4377L22.3055 10.6845H22.8306L22.7119 11.4069L22.1742 11.3949L21.8923 13.2009L21.8878 13.239V13.2729L21.8926 13.3029L21.9011 13.3299L21.9134 13.3527L21.9281 13.3746L21.9478 13.3932L21.9688 13.4061L21.9942 13.4199L22.0203 13.4313L22.0493 13.4403L22.0791 13.4451L22.114 13.4517L22.1477 13.4541L22.1834 13.4562H22.2875L22.3471 13.4517L22.402 13.4427L22.4489 13.4313L22.4849 13.4199L22.5125 13.4085L22.5294 13.3995L22.5361 13.3974L22.4489 14.0154L22.4273 14.0292L22.4042 14.0403L22.3806 14.0517L22.3581 14.0637L22.3348 14.0727L22.3086 14.0811L22.2838 14.0901L22.2535 14.0991L22.2239 14.1081L22.1916 14.1156L22.1559 14.1216L22.1179 14.1285L22.0774 14.1357L22.0352 14.1423L21.9866 14.1495L21.9351 14.1561H21.7059L21.5849 14.1471L21.4764 14.1339L21.3808 14.1159L21.2981 14.0904L21.2278 14.0634L21.1687 14.0292L21.1192 13.9908L21.0793 13.9473L21.0475 13.8999L21.0238 13.8474L21.0098 13.791L21.0013 13.728L20.9985 13.662L21.0013 13.5894L21.007 13.5144L21.0182 13.4334" fill="white"/>
<path d="M21.5841 9.89122H22.4377L22.3055 10.6841H22.8306L22.7119 11.4065L22.1742 11.3945L21.8923 13.2005L21.8878 13.2386V13.2725L21.8926 13.3025L21.9011 13.3295L21.9134 13.3523L21.9281 13.3742L21.9478 13.3928L21.9688 13.4057L21.9942 13.4195L22.0203 13.4309L22.0493 13.4399L22.0791 13.4447L22.114 13.4513L22.1477 13.4537L22.1834 13.4558H22.2875L22.3471 13.4513L22.402 13.4423L22.4489 13.4309L22.4849 13.4195L22.5125 13.4081L22.5294 13.3991L22.5361 13.397L22.4489 14.015L22.4273 14.0288L22.4042 14.0399L22.3806 14.0513L22.3581 14.0633L22.3348 14.0723L22.3086 14.0807L22.2838 14.0897L22.2535 14.0987L22.2239 14.1077L22.1916 14.1152L22.1559 14.1212L22.1179 14.1281L22.0774 14.1353L22.0352 14.1419L21.9866 14.1491L21.9351 14.1557H21.7059L21.5849 14.1467L21.4764 14.1335L21.3808 14.1155L21.2981 14.09L21.2278 14.063L21.1687 14.0288L21.1192 13.9904L21.0793 13.9469L21.0475 13.8995L21.0238 13.847L21.0098 13.7906L21.0013 13.7276L20.9985 13.6616L21.0013 13.589L21.007 13.514L21.0182 13.433L21.5847 9.89062" stroke="white" stroke-width="0.215"/>
<path d="M16.3953 12.641L16.3847 12.698L16.3824 12.7544L16.3869 12.8156L16.3998 12.8738L16.4159 12.9356L16.4417 12.9965L16.471 13.0553L16.5076 13.1117L16.5475 13.1657L16.5945 13.2182L16.6428 13.2632L16.6963 13.3064L16.7531 13.3424L16.813 13.3724L16.8771 13.3943L16.9404 13.4105L17.0163 13.4219L17.0934 13.433L17.1722 13.442L17.2503 13.4465L17.3311 13.4486H17.4098L17.4925 13.4444L17.5732 13.4372L17.6556 13.424L17.7408 13.4078L17.8252 13.3853L17.9104 13.3562L17.9948 13.322L18.0848 13.2809L18.172 13.2314L18.2609 13.1774L18.1287 13.9808L18.08 14.0078L18.0311 14.033L17.9861 14.054L17.94 14.072L17.8922 14.09L17.8466 14.1035L17.7971 14.1149L17.7445 14.126L17.6894 14.1332L17.6297 14.1392L17.5637 14.1464L17.4933 14.1488L17.4174 14.153H17.3322L17.2385 14.1554H17.0627L16.9857 14.1509L16.912 14.1464L16.8349 14.1374L16.7562 14.126L16.6802 14.1122L16.6043 14.0942L16.5275 14.0762L16.4524 14.0513L16.3785 14.0264L16.3059 13.997L16.2342 13.9631L16.1639 13.9241L16.0964 13.8833L16.0317 13.8389L15.9687 13.7888L15.9091 13.7348L15.8522 13.6754L15.7968 13.6124L15.7482 13.5434L15.7018 13.469L15.6596 13.3925L15.6211 13.3085L15.5873 13.2194L15.5569 13.1252L15.5344 13.0253L15.5147 12.9215L15.5021 12.8081L15.4937 12.6902V12.5681L15.4982 12.4367L15.5083 12.3005L15.5145 12.2534L15.5212 12.1988L15.5297 12.1439L15.5403 12.0854L15.551 12.0245L15.5657 11.9615L15.5825 11.8955L15.6 11.8277L15.6211 11.7569L15.6447 11.6891L15.672 11.6186L15.7015 11.5496L15.7352 11.4791L15.7718 11.4083L15.812 11.3384L15.8542 11.2703L15.9029 11.2049L15.9535 11.1389L16.0097 11.0753L16.0708 11.0165L16.1349 10.9574L16.2052 10.9034L16.2789 10.8533L16.3596 10.8059L16.4448 10.7651L16.5362 10.7261L16.6319 10.6931L16.7331 10.6655L16.8417 10.643L16.957 10.6268L17.0757 10.6178L17.2028 10.6133H17.2619L17.3218 10.6181L17.3831 10.6223L17.445 10.6295L17.5068 10.6385L17.5704 10.6517L17.6317 10.6676L17.6936 10.6856L17.7555 10.7066L17.8165 10.7315L17.8756 10.7585L17.9338 10.7909L17.9886 10.8269L18.044 10.8653L18.0947 10.9109L18.1458 10.958L18.1917 11.0105L18.2367 11.0675L18.2769 11.1305L18.3135 11.1965L18.3472 11.2685L18.3776 11.3453L18.4029 11.4293L18.4217 11.5178L18.4386 11.6132L18.4493 11.7122L18.4538 11.819V11.9324L18.4473 12.0524L18.4372 12.1793L18.4181 12.3131L18.3919 12.4541L18.3576 12.6527H16.1521L16.2837 12.0227H17.6067L17.6132 11.9369V11.8571L17.6084 11.7827L17.5957 11.7146L17.5788 11.6537L17.5577 11.5967L17.5302 11.5463L17.4981 11.5013L17.4624 11.4602L17.4222 11.4266L17.38 11.3996L17.335 11.3768L17.2861 11.3588L17.2354 11.345L17.182 11.339L17.1272 11.336H17.0672L17.0124 11.345L16.9576 11.3561L16.9058 11.375L16.8572 11.3996L16.8107 11.429L16.7666 11.4629L16.7258 11.5019L16.6881 11.5469L16.6544 11.5949L16.622 11.6465L16.5925 11.7035L16.5672 11.762L16.5455 11.8256L16.5287 11.8934L16.5135 11.9636" fill="white"/>
<path d="M16.3953 12.641L16.3847 12.698L16.3824 12.7544L16.3869 12.8156L16.3998 12.8738L16.4159 12.9356L16.4417 12.9965L16.471 13.0553L16.5076 13.1117L16.5475 13.1657L16.5945 13.2182L16.6428 13.2632L16.6963 13.3064L16.7531 13.3424L16.813 13.3724L16.8771 13.3943L16.9404 13.4105L17.0163 13.4219L17.0934 13.433L17.1722 13.442L17.2503 13.4465L17.3311 13.4486H17.4098L17.4925 13.4444L17.5732 13.4372L17.6556 13.424L17.7408 13.4078L17.8252 13.3853L17.9104 13.3562L17.9948 13.322L18.0848 13.2809L18.172 13.2314L18.2609 13.1774L18.1287 13.9808L18.08 14.0078L18.0311 14.033L17.9861 14.054L17.94 14.072L17.8922 14.09L17.8466 14.1035L17.7971 14.1149L17.7445 14.126L17.6894 14.1332L17.6297 14.1392L17.5637 14.1464L17.4933 14.1488L17.4174 14.153H17.3322L17.2385 14.1554H17.0627L16.9857 14.1509L16.912 14.1464L16.8349 14.1374L16.7562 14.126L16.6802 14.1122L16.6043 14.0942L16.5275 14.0762L16.4524 14.0513L16.3785 14.0264L16.3059 13.997L16.2342 13.9631L16.1639 13.9241L16.0964 13.8833L16.0317 13.8389L15.9687 13.7888L15.9091 13.7348L15.8522 13.6754L15.7968 13.6124L15.7482 13.5434L15.7018 13.469L15.6596 13.3925L15.6211 13.3085L15.5873 13.2194L15.5569 13.1252L15.5344 13.0253L15.5147 12.9215L15.5021 12.8081L15.4937 12.6902V12.5681L15.4982 12.4367L15.5083 12.3005L15.5145 12.2534L15.5212 12.1988L15.5297 12.1439L15.5403 12.0854L15.551 12.0245L15.5657 11.9615L15.5825 11.8955L15.6 11.8277L15.6211 11.7569L15.6447 11.6891L15.672 11.6186L15.7015 11.5496L15.7352 11.4791L15.7718 11.4083L15.812 11.3384L15.8542 11.2703L15.9029 11.2049L15.9535 11.1389L16.0097 11.0753L16.0708 11.0165L16.1349 10.9574L16.2052 10.9034L16.2789 10.8533L16.3596 10.8059L16.4448 10.7651L16.5362 10.7261L16.6319 10.6931L16.7331 10.6655L16.8417 10.643L16.957 10.6268L17.0757 10.6178L17.2028 10.6133H17.2619L17.3218 10.6181L17.3831 10.6223L17.445 10.6295L17.5068 10.6385L17.5704 10.6517L17.6317 10.6676L17.6936 10.6856L17.7555 10.7066L17.8165 10.7315L17.8756 10.7585L17.9338 10.7909L17.9886 10.8269L18.044 10.8653L18.0947 10.9109L18.1458 10.958L18.1917 11.0105L18.2367 11.0675L18.2769 11.1305L18.3135 11.1965L18.3472 11.2685L18.3776 11.3453L18.4029 11.4293L18.4217 11.5178L18.4386 11.6132L18.4493 11.7122L18.4538 11.819V11.9324L18.4473 12.0524L18.4372 12.1793L18.4181 12.3131L18.3919 12.4541L18.3576 12.6527H16.1521L16.2837 12.0227H17.6067L17.6132 11.9369V11.8571L17.6084 11.7827L17.5957 11.7146L17.5788 11.6537L17.5577 11.5967L17.5302 11.5463L17.4981 11.5013L17.4624 11.4602L17.4222 11.4266L17.38 11.3996L17.335 11.3768L17.2861 11.3588L17.2354 11.345L17.182 11.339L17.1272 11.336H17.0672L17.0124 11.345L16.9576 11.3561L16.9058 11.375L16.8572 11.3996L16.8107 11.429L16.7666 11.4629L16.7258 11.5019L16.6881 11.5469L16.6544 11.5949L16.622 11.6465L16.5925 11.7035L16.5672 11.762L16.5455 11.8256L16.5287 11.8934L16.5135 11.9636L16.3953 12.6407" stroke="white" stroke-width="0.215"/>
<path d="M15.2146 13.4336L15.0937 14.156H14.3264L14.3349 14.0882L14.3433 14.0198L14.3523 13.9592L14.3607 13.9022L14.3692 13.8548L14.3759 13.814L14.3844 13.787L14.3928 13.7711L14.3523 13.8203L14.3011 13.8701L14.244 13.9181L14.1782 13.9631L14.1087 14.006L14.0322 14.0465L13.9515 14.0825L13.8688 14.117L13.7816 14.1464L13.6925 14.1713L13.6033 14.1893L13.5133 14.2034L13.4247 14.21L13.3376 14.2121L13.2532 14.2055L13.1696 14.1917L13.0619 14.1641L12.9669 14.1275L12.8797 14.0843L12.8029 14.0372L12.7348 13.9853L12.6777 13.9265L12.6263 13.865L12.5835 13.7978L12.5475 13.7297L12.518 13.6586L12.4944 13.5866L12.4752 13.5116L12.4629 13.4396L12.455 13.3646L12.4505 13.2926L12.4482 13.2215L12.4567 13.0955L12.4755 12.9755L12.5036 12.8591L12.5441 12.7511L12.5925 12.6491L12.6476 12.554L12.7135 12.4661L12.7832 12.3821L12.862 12.3071L12.9444 12.2417L13.0344 12.1802L13.1272 12.1277L13.2256 12.0827L13.3252 12.0461L13.4264 12.0191L13.5305 11.9987H13.5347L13.5502 11.9966L13.5735 11.9936L13.605 11.9897L13.6416 11.9852L13.6832 11.9807L13.7305 11.9738L13.7816 11.9693L13.8323 11.9648L13.8829 11.9582L13.9363 11.9534L13.9878 11.9489L14.0336 11.9441L14.0786 11.9417L14.1189 11.9396H14.2612L14.2991 11.9417H14.3357L14.3695 11.9438H14.437L14.4671 11.9459H14.4952L14.5177 11.9483H14.5393L14.5562 11.9504H14.5798L14.5863 11.9282L14.6004 11.8736L14.6116 11.8097V11.7536L14.6074 11.7125L14.6006 11.6735L14.5911 11.6375L14.5765 11.6039L14.559 11.5718L14.5382 11.5427L14.5163 11.5157L14.491 11.4887L14.4637 11.4659L14.4356 11.4479L14.4038 11.4299L14.3728 11.4137L14.3385 11.4026L14.302 11.393L14.266 11.387L14.23 11.3819L14.1428 11.3795L14.0516 11.3816L13.956 11.3837L13.8587 11.3909L13.7608 11.3975L13.6632 11.4065L13.5648 11.4185L13.47 11.4293L13.3783 11.4449L13.2917 11.4584L13.213 11.4746L13.1387 11.4926L13.0729 11.5106L13.0175 11.5286L12.9733 11.5472L12.9416 11.5667L13.1601 10.7969L13.2242 10.7654L13.2917 10.7354L13.3598 10.7105L13.4321 10.6904L13.5066 10.6745L13.5825 10.6607L13.6632 10.6493L13.7462 10.6403L13.8306 10.6361L13.9178 10.6313L14.0069 10.6289H14.2961L14.3979 10.6313L14.5036 10.6337L14.5908 10.6427L14.6819 10.6565L14.7776 10.6814L14.8732 10.7105L14.9688 10.7495L15.0644 10.7966L15.1536 10.8506L15.238 10.9142L15.3173 10.9862L15.3865 11.0657L15.4464 11.1542L15.4928 11.2514L15.5265 11.3582L15.5462 11.4737L15.5476 11.5955L15.5307 11.7293" fill="white"/>
<path d="M15.2146 13.4336L15.0937 14.156H14.3264L14.3349 14.0882L14.3433 14.0198L14.3523 13.9592L14.3607 13.9022L14.3692 13.8548L14.3759 13.814L14.3844 13.787L14.3928 13.7711L14.3523 13.8203L14.3011 13.8701L14.244 13.9181L14.1782 13.9631L14.1087 14.006L14.0322 14.0465L13.9515 14.0825L13.8688 14.117L13.7816 14.1464L13.6925 14.1713L13.6033 14.1893L13.5133 14.2034L13.4247 14.21L13.3376 14.2121L13.2532 14.2055L13.1696 14.1917L13.0619 14.1641L12.9669 14.1275L12.8797 14.0843L12.8029 14.0372L12.7348 13.9853L12.6777 13.9265L12.6263 13.865L12.5835 13.7978L12.5475 13.7297L12.518 13.6586L12.4944 13.5866L12.4752 13.5116L12.4629 13.4396L12.455 13.3646L12.4505 13.2926L12.4482 13.2215L12.4567 13.0955L12.4755 12.9755L12.5036 12.8591L12.5441 12.7511L12.5925 12.6491L12.6476 12.554L12.7135 12.4661L12.7832 12.3821L12.862 12.3071L12.9444 12.2417L13.0344 12.1802L13.1272 12.1277L13.2256 12.0827L13.3252 12.0461L13.4264 12.0191L13.5305 11.9987H13.5347L13.5502 11.9966L13.5735 11.9936L13.605 11.9897L13.6416 11.9852L13.6832 11.9807L13.7305 11.9738L13.7816 11.9693L13.8323 11.9648L13.8829 11.9582L13.9363 11.9534L13.9878 11.9489L14.0336 11.9441L14.0786 11.9417L14.1189 11.9396H14.2612L14.2991 11.9417H14.3357L14.3695 11.9438H14.437L14.4671 11.9459H14.4952L14.5177 11.9483H14.5393L14.5562 11.9504H14.5798L14.5863 11.9282L14.6004 11.8736L14.6116 11.8097V11.7536L14.6074 11.7125L14.6006 11.6735L14.5911 11.6375L14.5765 11.6039L14.559 11.5718L14.5382 11.5427L14.5163 11.5157L14.491 11.4887L14.4637 11.4659L14.4356 11.4479L14.4038 11.4299L14.3728 11.4137L14.3385 11.4026L14.302 11.393L14.266 11.387L14.23 11.3819L14.1428 11.3795L14.0516 11.3816L13.956 11.3837L13.8587 11.3909L13.7608 11.3975L13.6632 11.4065L13.5648 11.4185L13.47 11.4293L13.3783 11.4449L13.2917 11.4584L13.213 11.4746L13.1387 11.4926L13.0729 11.5106L13.0175 11.5286L12.9733 11.5472L12.9416 11.5667L13.1601 10.7969L13.2242 10.7654L13.2917 10.7354L13.3598 10.7105L13.4321 10.6904L13.5066 10.6745L13.5825 10.6607L13.6632 10.6493L13.7462 10.6403L13.8306 10.6361L13.9178 10.6313L14.0069 10.6289H14.2961L14.3979 10.6313L14.5036 10.6337L14.5908 10.6427L14.6819 10.6565L14.7776 10.6814L14.8732 10.7105L14.9688 10.7495L15.0644 10.7966L15.1536 10.8506L15.238 10.9142L15.3173 10.9862L15.3865 11.0657L15.4464 11.1542L15.4928 11.2514L15.5265 11.3582L15.5462 11.4737L15.5476 11.5955L15.5307 11.7293L15.2146 13.4303" stroke="white" stroke-width="0.215"/>
<path d="M14.4814 12.5822L14.4794 12.5642L14.4664 12.5504L14.4451 12.5393L14.4186 12.5327L14.3821 12.5285L14.3435 12.5264H14.2524L14.2035 12.5309L14.1529 12.5375L14.1036 12.5441L14.0553 12.5531L14.008 12.5621L13.9636 12.5711L13.9248 12.5822L13.891 12.5942L13.8713 12.5984L13.846 12.6074L13.8151 12.6188L13.7808 12.6338L13.7448 12.6506L13.704 12.6707L13.6635 12.6956L13.623 12.7208L13.583 12.7523L13.5442 12.7865L13.5085 12.8225L13.4764 12.8645L13.4464 12.9065L13.4253 12.9545L13.4084 13.0064L13.398 13.0604L13.394 13.1714L13.4087 13.2575L13.434 13.3256L13.4725 13.3754L13.5189 13.4093L13.5679 13.4321L13.6213 13.4435L13.6719 13.4459L13.7659 13.4435L13.8483 13.4345L13.927 13.4186L13.9973 13.3982L14.0609 13.3751L14.118 13.3481L14.1686 13.3166L14.213 13.2821L14.2535 13.2482L14.2884 13.2098L14.3174 13.1738L14.3427 13.1348L14.3641 13.097L14.3809 13.0601L14.3933 13.0241L14.4046 12.9902L14.4153 12.9404L14.4254 12.8879L14.4358 12.8333L14.447 12.7769L14.4555 12.7229L14.4639 12.6728L14.4724 12.6248" fill="#0B84C4"/>
<path d="M8.80584 14.1564H7.97559L8.67421 9.8916H10.1184L10.2605 12.4308L11.2434 9.8916H12.7431L12.0416 14.1564H11.2119L11.7362 10.9626H11.7038L10.4683 14.1564H9.53821L9.52977 14.0226L9.51065 13.6674L9.48252 13.1643L9.45074 12.5874L9.4198 12.0048L9.39168 11.4912L9.37199 11.1192L9.36412 10.9632H9.32165H9.33065" fill="white"/>
<path d="M8.80584 14.1564H7.97559L8.67421 9.8916H10.1184L10.2605 12.4308L11.2434 9.8916H12.7431L12.0416 14.1564H11.2119L11.7362 10.9626H11.7038L10.4683 14.1564H9.53821L9.52977 14.0226L9.51065 13.6674L9.48252 13.1643L9.45074 12.5874L9.4198 12.0048L9.39168 11.4912L9.37199 11.1192L9.36412 10.9632H9.32165H9.33065L8.80584 14.1561" stroke="white" stroke-width="0.215"/>
<path d="M22.6782 14.1567H23.5416L23.8375 12.3156L23.8504 12.2436L23.865 12.1728L23.8825 12.1032L23.9033 12.0372L23.9266 11.9712L23.9567 11.91L23.9927 11.8512L24.0329 11.7948L24.0819 11.7447L24.1373 11.6997L24.2025 11.6586L24.2757 11.6226L24.3606 11.5932L24.4554 11.5701L24.5623 11.5569L24.6809 11.5479H24.6916L24.7046 11.5509L24.7214 11.5527H24.7383L24.7529 11.5551L24.7659 11.5572L24.7743 11.5593H24.7785L24.7805 11.5461L24.7895 11.5071L24.7994 11.4486L24.8162 11.3742L24.8373 11.2902L24.8609 11.1996L24.8885 11.1087L24.9203 11.0229L24.9439 10.959L24.9712 10.8978L24.9988 10.8369L25.0283 10.7808L25.0542 10.7328L25.0747 10.6944L25.0899 10.6692L25.0938 10.6608H25.0896L25.0789 10.656L25.0637 10.6536L25.0424 10.6494L25.021 10.6449L24.9957 10.6419L24.9732 10.6377H24.9515L24.8576 10.6446L24.7724 10.6554L24.6944 10.6734L24.6213 10.6944L24.5538 10.7208L24.4919 10.7508L24.4329 10.7868L24.38 10.8252L24.3266 10.869L24.2779 10.9161L24.2338 10.9659L24.1865 11.0199L24.1415 11.0769L24.0993 11.1381L24.0549 11.2017L24.0104 11.2677L24.1103 10.6857L23.2457 10.6737L22.6768 14.1573" fill="white"/>
<path d="M22.6782 14.1567H23.5416L23.8375 12.3156L23.8504 12.2436L23.865 12.1728L23.8825 12.1032L23.9033 12.0372L23.9266 11.9712L23.9567 11.91L23.9927 11.8512L24.0329 11.7948L24.0819 11.7447L24.1373 11.6997L24.2025 11.6586L24.2757 11.6226L24.3606 11.5932L24.4554 11.5701L24.5623 11.5569L24.6809 11.5479H24.6916L24.7046 11.5509L24.7214 11.5527H24.7383L24.7529 11.5551L24.7659 11.5572L24.7743 11.5593H24.7785L24.7805 11.5461L24.7895 11.5071L24.7994 11.4486L24.8162 11.3742L24.8373 11.2902L24.8609 11.1996L24.8885 11.1087L24.9203 11.0229L24.9439 10.959L24.9712 10.8978L24.9988 10.8369L25.0283 10.7808L25.0542 10.7328L25.0747 10.6944L25.0899 10.6692L25.0938 10.6608H25.0896L25.0789 10.656L25.0637 10.6536L25.0424 10.6494L25.021 10.6449L24.9957 10.6419L24.9732 10.6377H24.9515L24.8576 10.6446L24.7724 10.6554L24.6944 10.6734L24.6213 10.6944L24.5538 10.7208L24.4919 10.7508L24.4329 10.7868L24.38 10.8252L24.3266 10.869L24.2779 10.9161L24.2338 10.9659L24.1865 11.0199L24.1415 11.0769L24.0993 11.1381L24.0549 11.2017L24.0104 11.2677L24.1103 10.6857L23.2457 10.6737L22.6768 14.1573" stroke="white" stroke-width="0.215"/>
<path d="M26.417 10.6367L26.5126 10.6391L26.6066 10.6457L26.6977 10.6547L26.7866 10.6682L26.8721 10.6862L26.9545 10.7093L27.0327 10.7345L27.1114 10.7645L27.186 10.7975L27.2563 10.8341L27.326 10.8731L27.3901 10.916L27.4537 10.9631L27.5128 11.0129L27.5682 11.0654L27.6211 11.1218L27.6717 11.1812L27.7189 11.2442L27.7611 11.3078L27.8013 11.3762L27.8387 11.4458L27.8716 11.5208L27.9034 11.5958L27.9287 11.6747L27.9524 11.7545L27.9712 11.8376L27.9886 11.9237L28.001 12.0119L28.0095 12.0998L28.0131 12.1937L28.0159 12.2885L28.0131 12.3833L28.0075 12.4991L27.9943 12.6101L27.9796 12.7166L27.9605 12.8204L27.9394 12.9203L27.9121 13.0154L27.8818 13.1084L27.8503 13.196L27.8123 13.28L27.7743 13.3619L27.7293 13.4387L27.6849 13.5107L27.6357 13.5818L27.5822 13.6472L27.5277 13.7087L27.4703 13.7681L27.4112 13.8221L27.3494 13.8746L27.2838 13.9217L27.2172 13.9652L27.1469 14.0057L27.0749 14.0417L27.0031 14.0762L26.9264 14.1056L26.8499 14.1326L26.7697 14.1551L26.6881 14.1731L26.6074 14.189L26.5231 14.2004L26.4378 14.2094L26.3506 14.2145L26.264 14.2166L26.1768 14.2145L26.0896 14.2097L26.0072 14.2007L25.9243 14.1872L25.8436 14.1713L25.7626 14.1533L25.6861 14.1305L25.6121 14.1035L25.5376 14.0744L25.4672 14.0399L25.3997 14.0039L25.3334 13.9631L25.2704 13.9199L25.2107 13.8719L25.1517 13.8218L25.0954 13.7678L25.0448 13.7108L24.9942 13.6499L24.9492 13.5869L24.9047 13.5188L24.8665 13.4483L24.8282 13.3739L24.7965 13.2959L24.7666 13.2173L24.7419 13.1333L24.7177 13.0448L24.6991 12.9548L24.6842 12.8612L24.673 12.7646L24.6674 12.6647L24.6646 12.5606L24.6674 12.4544L24.673 12.3452L24.6842 12.2408L24.6991 12.1388L24.7177 12.0416L24.7396 11.9465L24.765 11.8535L24.7922 11.765L24.8251 11.6789L24.8589 11.5949L24.8966 11.5163L24.9388 11.4413L24.9838 11.3663L25.031 11.2985L25.0822 11.2307L25.1348 11.1692L25.1902 11.1077L25.2493 11.0513L25.3106 10.9994L25.3753 10.9496L25.4408 10.9046L25.5111 10.8638L25.5826 10.823L25.6571 10.7888L25.7313 10.7567L25.8101 10.7303L25.89 10.7048L25.9735 10.6847L26.0579 10.6667L26.1451 10.6547L26.2342 10.6439L26.3256 10.6391" fill="white"/>
<path d="M26.417 10.6367L26.5126 10.6391L26.6066 10.6457L26.6977 10.6547L26.7866 10.6682L26.8721 10.6862L26.9545 10.7093L27.0327 10.7345L27.1114 10.7645L27.186 10.7975L27.2563 10.8341L27.326 10.8731L27.3901 10.916L27.4537 10.9631L27.5128 11.0129L27.5682 11.0654L27.6211 11.1218L27.6717 11.1812L27.7189 11.2442L27.7611 11.3078L27.8013 11.3762L27.8387 11.4458L27.8716 11.5208L27.9034 11.5958L27.9287 11.6747L27.9524 11.7545L27.9712 11.8376L27.9886 11.9237L28.001 12.0119L28.0095 12.0998L28.0131 12.1937L28.0159 12.2885L28.0131 12.3833L28.0075 12.4991L27.9943 12.6101L27.9796 12.7166L27.9605 12.8204L27.9394 12.9203L27.9121 13.0154L27.8818 13.1084L27.8503 13.196L27.8123 13.28L27.7743 13.3619L27.7293 13.4387L27.6849 13.5107L27.6357 13.5818L27.5822 13.6472L27.5277 13.7087L27.4703 13.7681L27.4112 13.8221L27.3494 13.8746L27.2838 13.9217L27.2172 13.9652L27.1469 14.0057L27.0749 14.0417L27.0031 14.0762L26.9264 14.1056L26.8499 14.1326L26.7697 14.1551L26.6881 14.1731L26.6074 14.189L26.5231 14.2004L26.4378 14.2094L26.3506 14.2145L26.264 14.2166L26.1768 14.2145L26.0896 14.2097L26.0072 14.2007L25.9243 14.1872L25.8436 14.1713L25.7626 14.1533L25.6861 14.1305L25.6121 14.1035L25.5376 14.0744L25.4672 14.0399L25.3997 14.0039L25.3334 13.9631L25.2704 13.9199L25.2107 13.8719L25.1517 13.8218L25.0954 13.7678L25.0448 13.7108L24.9942 13.6499L24.9492 13.5869L24.9047 13.5188L24.8665 13.4483L24.8282 13.3739L24.7965 13.2959L24.7666 13.2173L24.7419 13.1333L24.7177 13.0448L24.6991 12.9548L24.6842 12.8612L24.673 12.7646L24.6674 12.6647L24.6646 12.5606L24.6674 12.4544L24.673 12.3452L24.6842 12.2408L24.6991 12.1388L24.7177 12.0416L24.7396 11.9465L24.765 11.8535L24.7922 11.765L24.8251 11.6789L24.8589 11.5949L24.8966 11.5163L24.9388 11.4413L24.9838 11.3663L25.031 11.2985L25.0822 11.2307L25.1348 11.1692L25.1902 11.1077L25.2493 11.0513L25.3106 10.9994L25.3753 10.9496L25.4408 10.9046L25.5111 10.8638L25.5826 10.823L25.6571 10.7888L25.7313 10.7567L25.8101 10.7303L25.89 10.7048L25.9735 10.6847L26.0579 10.6667L26.1451 10.6547L26.2342 10.6439L26.3256 10.6391L26.417 10.6367" stroke="white" stroke-width="0.215"/>
<path d="M27.687 13.9814H27.9373V14.0156H27.8389V14.2376H27.7846V14.0156H27.687" fill="white"/>
<path d="M27.687 13.9814H27.9373V14.0156H27.8389V14.2376H27.7846V14.0156H27.687V13.9814" stroke="white" stroke-width="0.215"/>
<path d="M27.9695 13.9814H28.0463L28.1346 14.1788L28.2218 13.9814H28.2989V14.2373H28.2426V14.0402L28.156 14.237H28.1115L28.0244 14.0399V14.2367H27.9692" fill="white"/>
<path d="M27.9695 13.9814H28.0463L28.1346 14.1788L28.2218 13.9814H28.2989V14.2373H28.2426V14.0402L28.156 14.237H28.1115L28.0244 14.0399V14.2367H27.9692V13.9805" stroke="white" stroke-width="0.215"/>
<path d="M25.7397 12.3015L25.7268 12.4287L25.7197 12.5463V12.6528L25.7265 12.7524L25.7391 12.843L25.758 12.9222L25.7816 12.9942L25.8109 13.0602L25.8474 13.1166L25.8879 13.1646L25.9321 13.2051L25.9816 13.2372L26.035 13.2612L26.0941 13.2798L26.1554 13.2888L26.2215 13.2936L26.2938 13.2912L26.3641 13.2822L26.4296 13.266L26.4929 13.242L26.5528 13.2096L26.6102 13.1691L26.663 13.1211L26.7137 13.0641L26.7587 13.0011L26.8014 12.9285L26.8416 12.8475L26.8754 12.7587L26.9074 12.6612L26.9356 12.555L26.9567 12.4398L26.9764 12.3153L26.9868 12.2178L26.9924 12.1248V12.0348L26.9868 11.9484L26.9761 11.8689L26.9586 11.7921L26.9353 11.7216L26.9072 11.6568L26.874 11.5977L26.8352 11.5473L26.791 11.5023L26.7421 11.4663L26.6867 11.4363L26.6276 11.4183L26.5638 11.4072H26.4929L26.4063 11.4138L26.3253 11.4297L26.2507 11.4567L26.1813 11.4912L26.1171 11.5362L26.0581 11.586L26.0046 11.6421L25.9582 11.706L25.9141 11.7735L25.8753 11.8461L25.8409 11.9181L25.8134 11.9952L25.7881 12.0723L25.767 12.1503L25.7524 12.2271" fill="#EB2230"/>
</svg>
