<svg width="16" height="16" viewBox="0 0 16 16" fill="none" xmlns="http://www.w3.org/2000/svg">
<path d="M15.0625 6.125H0.9375C0.419719 6.125 0 6.54472 0 7.0625V12.2188C0 12.9954 0.629594 13.625 1.40625 13.625H14.5938C15.3704 13.625 16 12.9954 16 12.2188V7.0625C16 6.54472 15.5803 6.125 15.0625 6.125ZM14.5938 2.375H1.40625C0.629594 2.375 0 3.00459 0 3.78125V4.25C0 4.76778 0.419719 5.1875 0.9375 5.1875H15.0625C15.5803 5.1875 16 4.76778 16 4.25V3.78125C16 3.00459 15.3704 2.375 14.5938 2.375Z" fill="url(#paint0_linear)"/>
<path d="M0 4.25V7.0625H16V4.25H0ZM5.625 8C5.2945 8 4.97222 8.08925 4.6875 8.25587C4.40278 8.08925 4.0805 8 3.75 8C2.71637 8 1.875 8.84091 1.875 9.875C1.875 10.9091 2.71637 11.75 3.75 11.75C4.0805 11.75 4.40278 11.6608 4.6875 11.4941C4.97222 11.6608 5.2945 11.75 5.625 11.75C6.65863 11.75 7.5 10.9091 7.5 9.875C7.5 8.84091 6.65863 8 5.625 8ZM10.8438 9.875H9.90625C9.64716 9.875 9.4375 10.0847 9.4375 10.3438C9.4375 10.6028 9.64716 10.8125 9.90625 10.8125H10.8438C11.1028 10.8125 11.3125 10.6028 11.3125 10.3438C11.3125 10.0847 11.1028 9.875 10.8438 9.875ZM13.6562 9.875H12.7188C12.4597 9.875 12.25 10.0847 12.25 10.3438C12.25 10.6028 12.4597 10.8125 12.7188 10.8125H13.6562C13.9153 10.8125 14.125 10.6028 14.125 10.3438C14.125 10.0847 13.9153 9.875 13.6562 9.875Z" fill="url(#paint1_linear)"/>
<defs>
<linearGradient id="paint0_linear" x1="8" y1="13.625" x2="8" y2="2.375" gradientUnits="userSpaceOnUse">
<stop stop-color="#5558FF"/>
<stop offset="1" stop-color="#00C0FF"/>
</linearGradient>
<linearGradient id="paint1_linear" x1="8" y1="11.75" x2="8" y2="4.25" gradientUnits="userSpaceOnUse">
<stop stop-color="#ADDCFF"/>
<stop offset="0.5028" stop-color="#EAF6FF"/>
<stop offset="1" stop-color="#EAF6FF"/>
</linearGradient>
</defs>
</svg>
