<svg width="36" height="24" viewBox="0 0 36 24" fill="none" xmlns="http://www.w3.org/2000/svg">
<g clip-path="url(#clip0)">
<path d="M0 4C0 1.79086 1.79086 0 4 0H32C34.2091 0 36 1.79086 36 4V20C36 22.2091 34.2091 24 32 24H4C1.79086 24 0 22.2091 0 20V4Z" fill="#F9F9F9"/>
<path d="M36 29.6316C36 30.7625 35.4628 31.6803 34.7996 31.6803H1.19981C0.537187 31.6803 0 30.7635 0 29.6316V-4.67109C0 -5.80389 0.537187 -6.71973 1.19981 -6.71973H34.7999C35.4628 -6.71973 36 -5.80293 36 -4.67109V29.6316Z" fill="#F2F2F2"/>
<path d="M9.89551 24H34.8002C35.4625 24 36.0003 23.427 36.0003 22.7196V13.7334C33.6094 15.3498 24.5981 20.9214 9.89579 24H9.89551Z" fill="#F58220"/>
<path d="M18.4397 10.1309C17.4477 10.1309 16.6431 10.9577 16.6431 11.9777C16.6431 13.0622 17.412 13.8725 18.4397 13.8725C19.4404 13.8725 20.2307 13.0514 20.2307 11.9984C20.2313 10.9526 19.446 10.1312 18.44 10.1312L18.4397 10.1309Z" fill="url(#paint0_radial)"/>
<path d="M8.23995 10.1986H7.27441V13.7926H8.23545C8.74507 13.7926 9.11379 13.663 9.43723 13.378C9.82085 13.0375 10.0484 12.526 10.0484 11.9971C10.0484 10.936 9.30588 10.1983 8.23995 10.1983V10.1986ZM9.00832 12.8977C8.8002 13.0975 8.53357 13.1836 8.10832 13.1836H7.93113V10.8076H8.10832C8.53357 10.8076 8.79035 10.8886 9.00832 11.098C9.23557 11.314 9.37057 11.6479 9.37057 11.992C9.37057 12.3379 9.23557 12.6835 9.00832 12.898V12.8977ZM10.3516 10.1986H11.0074V13.7926H10.3516V10.1986ZM12.6145 11.5768C12.2199 11.4208 12.1046 11.3188 12.1046 11.1247C12.1046 10.8991 12.311 10.7269 12.594 10.7269C12.7909 10.7269 12.9523 10.813 13.125 11.017L13.4681 10.5388C13.1852 10.2739 12.8465 10.1392 12.4775 10.1392C11.8821 10.1392 11.4271 10.5814 11.4271 11.1682C11.4271 11.6647 11.6394 11.9176 12.2559 12.1546C12.5138 12.2512 12.6449 12.316 12.7104 12.3598C12.8418 12.4519 12.9073 12.5803 12.9073 12.7309C12.9073 13.0228 12.6907 13.2379 12.3971 13.2379C12.0835 13.2379 11.8312 13.0714 11.6799 12.7585L11.2561 13.1956C11.5581 13.6696 11.9218 13.8796 12.4224 13.8796C13.1042 13.8796 13.584 13.3942 13.584 12.6991C13.584 12.1282 13.3629 11.8693 12.6142 11.5771L12.6145 11.5768ZM13.7913 11.9974C13.7913 13.054 14.5695 13.873 15.5699 13.873C15.8531 13.873 16.0953 13.8139 16.3934 13.663V12.8386C16.1304 13.1191 15.8978 13.2316 15.6003 13.2316C14.9388 13.2316 14.4688 12.7195 14.4688 11.992C14.4688 11.3029 14.9531 10.7584 15.5702 10.7584C15.8832 10.7584 16.1209 10.8772 16.3942 11.1628V10.3378C16.1065 10.1818 15.8683 10.1182 15.5856 10.1182C14.59 10.1182 13.7913 10.9531 13.7913 11.9971V11.9974ZM21.7174 12.6124L20.8186 10.1986H20.1008L21.5313 13.8841H21.8842L23.34 10.1983H22.6284L21.7174 12.6124ZM23.6389 13.7923H25.5019V13.1833H24.2943V12.2134H25.4558V11.6044H24.2943V10.8064H25.5019V10.198H23.6389V13.7923ZM28.1029 11.2594C28.1029 10.5859 27.669 10.1986 26.9113 10.1986H25.9359V13.7926H26.5935V12.3484H26.6793L27.5885 13.7923H28.3963L27.3351 12.2782C27.8301 12.1702 28.1029 11.8093 28.1029 11.2591V11.2594ZM26.7844 11.8525H26.5932V10.7635H26.7951C27.2046 10.7635 27.4268 10.9477 27.4268 11.2969C27.4268 11.6581 27.2046 11.8525 26.7844 11.8525Z" fill="#081A23"/>
<path d="M28.5665 10.4657C28.5665 10.4027 28.5265 10.3682 28.4545 10.3682H28.3589V10.6853H28.4298V10.5623L28.5122 10.6853H28.6008L28.5018 10.5539C28.5434 10.5419 28.5665 10.5095 28.5665 10.4654V10.4657ZM28.4421 10.5086H28.4298V10.4267H28.4427C28.4787 10.4267 28.4961 10.4399 28.4961 10.4669C28.4961 10.4945 28.4781 10.5089 28.4421 10.5089V10.5086Z" fill="#231F20"/>
<path d="M28.4692 10.249C28.3249 10.249 28.2104 10.372 28.2104 10.5259C28.2104 10.6789 28.3258 10.8019 28.4692 10.8019C28.6098 10.8019 28.7251 10.6777 28.7251 10.5259C28.7251 10.3741 28.6098 10.249 28.4692 10.249ZM28.4686 10.753C28.3539 10.753 28.2614 10.6522 28.2614 10.5265C28.2614 10.3996 28.3525 10.2991 28.4686 10.2991C28.5806 10.2991 28.6728 10.4017 28.6728 10.5265C28.6728 10.651 28.5806 10.7527 28.4686 10.7527V10.753Z" fill="#231F20"/>
</g>
<defs>
<radialGradient id="paint0_radial" cx="0" cy="0" r="1" gradientUnits="userSpaceOnUse" gradientTransform="translate(18.4372 12.0017) scale(1.77384 1.8921)">
<stop offset="0.006" stop-color="#FFEEE1"/>
<stop offset="0.097" stop-color="#FFEAD8"/>
<stop offset="0.245" stop-color="#FEDDC2"/>
<stop offset="0.433" stop-color="#FCCA9F"/>
<stop offset="0.652" stop-color="#F9AF72"/>
<stop offset="0.895" stop-color="#F68F39"/>
<stop offset="1" stop-color="#F48220"/>
</radialGradient>
<clipPath id="clip0">
<path d="M0 4C0 1.79086 1.79086 0 4 0H32C34.2091 0 36 1.79086 36 4V20C36 22.2091 34.2091 24 32 24H4C1.79086 24 0 22.2091 0 20V4Z" fill="white"/>
</clipPath>
</defs>
</svg>
