<svg width="24" height="24" viewBox="0 0 24 24" fill="none"
    xmlns="http://www.w3.org/2000/svg">
    <path d="M8.81006 5.5C8.81006 5.22386 8.5862 5 8.31006 5C8.03392 5 7.81006 5.22386 7.81006 5.5V18.5C7.81006 18.7761 8.03392 19 8.31006 19C8.5862 19 8.81006 18.7761 8.81006 18.5V5.5Z" fill="#E8E8EA"/>
    <path d="M12.8101 5.5C12.8101 5.22386 12.5862 5 12.3101 5C12.0339 5 11.8101 5.22386 11.8101 5.5V18.5C11.8101 18.7761 12.0339 19 12.3101 19C12.5862 19 12.8101 18.7761 12.8101 18.5V5.5Z" fill="#E8E8EA"/>
    <path d="M16.8101 5.5C16.8101 5.22386 16.5862 5 16.3101 5C16.0339 5 15.8101 5.22386 15.8101 5.5V18.5C15.8101 18.7761 16.0339 19 16.3101 19C16.5862 19 16.8101 18.7761 16.8101 18.5V5.5Z" fill="#E8E8EA"/>
</svg>
